<?xml version="1.0" encoding="utf8" standalone="no"?>
<svg viewBox="0 0 386.54239 295.74738" xmlns="http://www.w3.org/2000/svg">
<g transform="translate(-92.8258,-621.75724)">
<path d="m214.33782,906.30073c-13.47002-3.32883-18.73581-10.68228-23.83081-33.27866-4.90564-21.75661-7.61357-29.23339-13.48414-37.23072-4.71458-6.42254-10.82957-9.29655-19.78012-9.29655-11.1222,0-16.91691-4.21106-20.71484-15.0536-4.069-11.61644-4.82785-32.52572-1.51778-41.82126 2.13371-5.99204 7.64824-12.82244 13.59527-16.83937 2.97492-2.00941 13.5449-6.69403 25.17412-11.15717 22.23626-8.53399 37.21046-15.68133 52.09471-24.86533 19.28673-11.90045 41.29225-28.60119 54.96926-41.71802 8.72833-8.37084 9.09892-8.91263 10.94529-16.00127 1.7877-6.8635 4.23715-11.38864 8.25244-15.24566 2.96416-2.84735 4.03758-3.26322 9.28491-3.59735 9.80385-.62426 15.94326,3.45737 24.46522,16.26508 12.18846,18.31813 24.48096,53.52306 30.07057,86.12022 8.35286,48.71168 2.11628,96.60547-13.42525,103.09913-5.97203,2.49528-9.13239,1.5794-20.98551-6.08164-3.10723-2.0083-8.50554-4.74282-11.99626-6.07669-19.96088-7.62747-66.79337-15.38336-93.04119-15.40846-9.73346-.009-10.5341.12957-11.88778,2.06222-2.29093,3.27077-1.79188,10.5713 1.3273,19.41721 1.52831,4.33421 2.78701,8.84525 2.79713,10.02453 .0235,2.74388 2.05399,6.66761 4.68027,9.04435 3.33902,3.02177 4.89559,6.85322 4.22861,10.40855-.52332,2.78951-.0662,3.897 3.64698,8.83667 4.56371,6.07109 5.11806,8.68111 2.96783,13.97332-1.40415,3.45591-1.16416,4.83899 1.41668,8.16478 2.42325,3.12272 2.17779,5.5758-.66612,6.65706-3.21789,1.22344-12.85404,1.01535-18.58679-.40137zm96.98027-94.02465c-18.6547-37.28635-29.58963-94.7898-24.12787-126.88113l.60837-3.57458-7.3901,7.39011c-10.29746,10.29745-19.17646,16.62299-45.69611,32.55462-33.5219,20.1382-38.72474,25.8517-39.33248,43.19296-.68921,19.66598 6.96393,35.72094 19.80966,41.55718 4.13403,1.87824 7.13502,2.27657 23.39,3.1046 10.25612.52245 23.46822,1.62647 29.36022,2.45337 12.7437,1.7885 32.23739,6.70753 41.96645,10.58979 3.84604,1.53471 7.23273,2.81492 7.52597,2.8449s-2.4581-5.92433-6.11411-13.23182zm6.50779-14.21871c2.21879-10.7616 2.82181-25.87568 1.43995-36.09116-2.63431-19.47433-11.4154-38.57318-21.14782-45.99646l-3.40514-2.59722 .64541,5.9798c1.34207,12.43441 5.43532,37.21514 8.14914,49.33523 3.28735,14.68153 10.98235,38.69031 12.04723,37.58796 .40335-.41753 1.4254-4.11571 2.27123-8.21815zm116.28295,32.40002c4.67987-11.5989 8.60588-26.788 10.56914-40.89031 2.38528-17.13364 1.51415-49.59058-1.7935-66.82346-7.70834-40.16056-24.84052-71.10801-47.59624-85.97754-3.91586-2.55879-6.69411-4.79422-6.1739-4.96762 1.42532-.47511 10.76932,3.22469 19.15743,7.58547 26.42967,13.74015 43.76406,36.4265 52.49237,68.69928 2.25535,8.33912 2.39913,10.19459 2.45665,31.70074 .0551,20.59241-.15494,23.85373-2.13129,33.0993-2.98353,13.95722-7.70285,27.82403-13.64462,40.09211-4.98104,10.28441-14.97018,26.57268-16.2963,26.57268-.38917,0 .94295-4.09079 2.96026-9.09065zm-27.60347-12.58706c14.42372-35.72251 12.51253-84.75436-4.73811-121.55613-7.15087-15.25534-15.75667-25.90697-26.91507-33.31349-2.97048-1.9717-5.22798-3.75778-5.01667-3.96909 .70687-.70686 8.30595,2.39662 16.80961,6.86506 14.67602,7.71186 27.25657,21.18548 35.09977,37.59143 6.08335,12.72482 7.68572,20.31424 8.20138,38.84483 .6696,24.06213-2.83986,41.45051-12.37579,61.31867-4.28615,8.93021-12.25553,21.91081-13.45206,21.91081-.3954,0 .67871-3.46144 2.38694-7.69209zm-277.63753,5.80576c-18.84011-3.17927-26.04203-10.78216-26.04203-27.49193 0-9.59524 1.08649-13.8715 5.00088-19.6827 2.6192-3.88841 4.67913-5.37611 15.6046-11.26985 12.83692-6.92486 16.53176-8.31105 13.77638-5.16851-4.82897,5.50749-7.22762,14.71305-7.22762,27.73814 0,15.0232 2.87116,24.04722 10.35684,32.5514l3.76512,4.27741-5.44039-.10967c-2.99222-.0603-7.39943-.44025-9.79378-.84429zm-.2748-9.06907c-4.05545-10.46992-5.47317-17.97364-5.54892-29.36936-.0775-11.65194-.92331-14.37561-2.65968-8.56416-.44967,1.505-.85912,6.93206-.90989,12.06012-.0807,8.14331.2876,10.47467 2.90837,18.4144 2.50412,7.5863 3.31852,9.09065 4.9214,9.09065 1.44844,0 1.76532-.4012 1.28872-1.63165zm-12.81363-8.85756c-2.53545-7.8297-2.75563-9.4969-2.38932-18.09181 .33548-7.87148.18217-9.3824-.90951-8.96349-2.14481.82304-3.03625,4.57021-3.01278,12.66419 .017,5.85888.5354,8.87954 2.232,13.0052 5.12115,12.45329 7.97776,13.42372 4.07961,1.38591zm264.69421,4.66187c5.2148-12.80377 7.01169-22.37731 7.51251-40.02531 .36481-12.85539.11963-18.60076-1.11405-26.10649-1.94502-11.83354-6.73552-26.54573-11.8358-36.3491-4.24362-8.15678-14.39255-19.78433-19.81931-22.70684-1.84463-.9934-3.35387-2.15861-3.35387-2.58936 0-2.23357 15.78402,5.5468 22.9271,11.3014 15.35123,12.36722 24.09082,30.64859 25.2612,52.84113 .9291,17.61728-2.30744,34.42064-9.60791,49.88204-4.26001,9.02211-10.56277,19.55697-11.7093,19.57171-.34868.005.43406-2.61414 1.73943-5.81918z"/>
</g>
</svg>
